#!OML:ASF E:\Steps\Project 1\Capture day 1\Session 2\Subject.ASF
:FULLY-SPECIFIED
:DEGREES
819
root 9.11188 25.2029 -14.0187 -155.573 0.286767 179.212
lowerback -27.4136 -2.18166 -5.57231
upperback 0.771978 -0.691204 -0.245555
thorax 15.6291 -0.596472 2.56293
lowerneck 1.04011 -2.23336 -3.5766
upperneck 13.4047 -3.07979 10.0623
head 4.01143 -0.836263 3.61469
rclavicle -1.19271e-015 2.78299e-015
rhumerus -40.4811 -14.9535 -78.3218
rradius 37.1023
rwrist -3.2215
rhand -6.41554 -51.5811
rfingers 7.12502
rthumb 19.4329 -80.6301
lclavicle -1.19271e-015 2.78299e-015
lhumerus -31.284 8.51829 78.9635
lradius 20.6927
lwrist -3.76624
lhand -20.2437 -10.7701
lfingers 7.12502
lthumb 6.10454 19.122
rfemur -25.9949 7.88272 17.486
rtibia 9.05207
rfoot -15.7429 -8.37786
rtoes -28.7098
lfemur -26.1484 -8.22339 -21.0174
ltibia 10.4589
lfoot 353.399 3.01732
ltoes -36.8126
820
root 9.11794 25.2042 -14.0385 -155.416 0.323217 179.044
lowerback -27.7123 -2.17202 -5.65543
upperback 0.72871 -0.593365 -0.365177
thorax 15.7136 -0.547643 2.51355
lowerneck 1.1485 -2.24787 -3.48035
upperneck 12.921 -3.10971 10.1613
head 3.84919 -0.870058 3.62341
rclavicle 5.56597e-015 1.47101e-014
rhumerus -40.3089 -15.4774 -78.2303
rradius 37.1859
rwrist -3.11159
rhand -6.54228 -51.562
rfingers 7.12502
rthumb 19.311 -80.6232
lclavicle 5.56597e-015 1.47101e-014
lhumerus -31.4217 8.85681 78.6346
lradius 20.0142
lwrist -4.80495
lhand -20.0896 -10.6879
lfingers 7.12502
lthumb 6.25328 19.1998
rfemur -26.0328 7.962 17.2091
rtibia 8.79412
rfoot -15.8017 -8.36363
rtoes -28.5533
lfemur -26.175 -8.24694 -21.1872
ltibia 10.3124
lfoot 353.422 2.979
ltoes -37.5534
821
root 9.12341 25.2047 -14.0584 -155.408 0.415382 178.893
lowerback -27.7255 -2.09923 -5.69653
upperback 0.662065 -0.45226 -0.489265
thorax 15.6277 -0.474536 2.45634
lowerneck 0.864662 -2.32484 -3.44025
upperneck 12.8164 -3.23071 10.1359
head 3.8733 -0.934528 3.60073
rclavicle -7.85199e-015 -5.56597e-015
rhumerus -40.3164 -15.8967 -78.1062
rradius 37.4193
rwrist -3.28225
rhand -6.66039 -51.6385
rfingers 7.12502
rthumb 19.1974 -80.711
lclavicle -7.85199e-015 -5.56597e-015
lhumerus -31.335 9.298 78.2792
lradius 18.9348
lwrist -5.9609
lhand -19.8385 -10.8591
lfingers 7.12502
lthumb 6.49577 19.0213
rfemur -25.8913 8.01506 17.0011
rtibia 8.5598
rfoot -16.3308 -8.21935
rtoes -26.5277
lfemur -26.012 -8.26889 -21.363
ltibia 10.1638
lfoot 353.416 3.03968
ltoes -37.8986
822
root 9.13108 25.2036 -14.0758 -155.456 0.494767 178.756
lowerback -27.5614 -2.11913 -5.80132
upperback 0.447405 -0.430948 -0.542796
thorax 15.2933 -0.448083 2.46707
lowerneck 0.610009 -2.41156 -3.52157
upperneck 13.0494 -3.35836 10.1326
head 3.99676 -0.986112 3.60913
rclavicle -5.1684e-015 2.66371e-014
rhumerus -40.4617 -16.1005 -77.8868
rradius 37.3417
rwrist -3.4093
rhand -6.87225 -51.4274
rfingers 7.12502
rthumb 18.9937 -80.52
lclavicle -5.1684e-015 2.66371e-014
lhumerus -32.2152 9.46881 77.8933
lradius 18.5503
lwrist -6.85255
lhand -19.5553 -11.2182
lfingers 7.12502
lthumb 6.76914 18.6536
rfemur -25.713 8.0342 16.8469
rtibia 8.41641
rfoot -15.8699 -8.14397
rtoes -28.582
lfemur -25.7973 -8.30159 -21.5082
ltibia 10.0079
lfoot 353.385 3.10464
ltoes -37.4056
823
root 9.13877 25.2039 -14.0951 -155.358 0.480454 178.671
lowerback -27.9239 -2.20526 -5.94767
upperback 0.546975 -0.474541 -0.493345
thorax 15.5905 -0.490384 2.57991
lowerneck 0.365489 -2.32317 -3.57616
upperneck 12.6901 -3.2588 10.113
head 3.9229 -0.964921 3.60895
rclavicle 7.65321e-015 -1.86858e-014
rhumerus -39.9891 -16.3725 -77.7611
rradius 37.269
rwrist -3.40519
rhand -7.11359 -51.178
rfingers 7.12502
rthumb 18.7616 -80.2932
lclavicle 7.65321e-015 -1.86858e-014
lhumerus -32.203 10.3591 77.5034
lradius 17.7317
lwrist -8.31695
lhand -19.4132 -11.5435
lfingers 7.12502
lthumb 6.90632 18.3238
rfemur -25.6759 8.02679 16.7525
rtibia 8.2358
rfoot -16.5875 -8.09188
rtoes -25.1871
lfemur -25.7737 -8.26091 -21.583
ltibia 9.91954
lfoot 353.317 2.9991
ltoes -36.7142
824
root 9.14171 25.2049 -14.12 -155.21 0.352141 178.833
lowerback -28.1938 -2.17776 -5.68544
upperback 0.490842 -0.498943 -0.471275
thorax 15.656 -0.477039 2.44977
lowerneck 0.264356 -2.31944 -3.5628
upperneck 12.419 -3.265 10.1373
head 3.85882 -0.982221 3.60999
rclavicle 3.67752e-015 -1.59028e-015
rhumerus -39.8864 -16.5936 -77.6972
rradius 37.4957
rwrist -3.53355
rhand -6.9561 -51.8175
rfingers 7.12502
rthumb 18.913 -80.918
lclavicle 3.67752e-015 -1.59028e-015
lhumerus -32.2509 11.5667 76.8241
lradius 16.7528
lwrist -10.0352
lhand -19.2519 -11.3893
lfingers 7.12502
lthumb 7.06198 18.4729
rfemur -25.5826 7.9317 17.008
rtibia 7.9798
rfoot -16.8319 -7.98221
rtoes -23.9746
lfemur -25.7641 -8.22548 -21.385
ltibia 9.82712
lfoot 353.297 2.94615
ltoes -36.6745
825
root 9.1458 25.2056 -14.1462 -155.172 0.275911 178.999
lowerback -28.3843 -2.08789 -5.38299
upperback 0.487376 -0.459935 -0.49841
thorax 15.739 -0.43537 2.26905
lowerneck 0.178757 -2.35243 -3.5926
upperneck 12.174 -3.32129 10.1994
head 3.80477 -1.02254 3.62883
rclavicle -6.06293e-015 -2.8625e-014
rhumerus -39.6029 -16.7652 -77.7399
rradius 37.5026
rwrist -3.79282
rhand -6.70083 -52.4683
rfingers 7.12502
rthumb 19.1585 -81.5446
lclavicle -6.06293e-015 -2.8625e-014
lhumerus -32.2464 12.7113 76.1273
lradius 15.8816
lwrist -11.6574
lhand -19.0995 -11.0146
lfingers 7.12502
lthumb 7.20914 18.8426
rfemur -25.4085 7.7863 17.3
rtibia 7.81817
rfoot -16.8778 -7.77114
rtoes -23.9288
lfemur -25.6247 -8.2781 -21.173
ltibia 9.68689
lfoot 353.282 3.0351
ltoes -37.0539
826
root 9.15839 25.2069 -14.1707 -155.17 0.314606 178.933
lowerback -28.4602 -2.09062 -5.48474
upperback 0.396702 -0.401331 -0.551664
thorax 15.6632 -0.404528 2.29022
lowerneck 0.248322 -2.3623 -3.58421
upperneck 12.0014 -3.33392 10.2228
head 3.74226 -1.03734 3.63316
rclavicle 3.27995e-015 -3.02153e-014
rhumerus -39.5934 -16.8214 -77.7611
rradius 37.4958
rwrist -3.99981
rhand -6.51929 -52.2568
rfingers 7.12502
rthumb 19.3331 -81.3158
lclavicle 3.27995e-015 -3.02153e-014
lhumerus -32.482 13.7113 75.3739
lradius 15.0824
lwrist -13.2287
lhand -19.2649 -11.4439
lfingers 7.12502
lthumb 7.04945 18.4187
rfemur -25.3079 7.75602 17.2668
rtibia 7.77401
rfoot -16.8868 -7.78326
rtoes -24.4798
lfemur -25.4671 -8.33107 -21.178
ltibia 9.54509
lfoot 353.219 3.12027
ltoes -37.5255
827
root 9.1675 25.2066 -14.1923 -155.099 0.265534 178.918
lowerback -28.5632 -2.10901 -5.56954
upperback 0.264959 -0.381202 -0.508248
thorax 15.556 -0.390387 2.39278
lowerneck 0.23295 -2.33768 -3.56456
upperneck 11.8487 -3.29918 10.1816
head 3.69572 -1.03029 3.61657
rclavicle 3.37934e-015 -7.95139e-015
rhumerus -39.7371 -16.9612 -77.5607
rradius 37.5917
rwrist -4.10216
rhand -6.54925 -51.7183
rfingers 7.12502
rthumb 19.3043 -80.7801
lclavicle 3.37934e-015 -7.95139e-015
lhumerus -32.9139 14.9827 74.5807
lradius 14.471
lwrist -14.9296
lhand -19.3111 -11.9998
lfingers 7.12502
lthumb 7.00488 17.8643
rfemur -25.2395 7.57764 17.3346
rtibia 7.67645
rfoot -16.9168 -7.71951
rtoes -24.8188
lfemur -25.3795 -8.39271 -21.1292
ltibia 9.397
lfoot 353.16 3.1693
ltoes -37.5986
828
root 9.17626 25.2059 -14.2176 -155.037 0.34745 178.904
lowerback -28.7948 -2.13496 -5.63844
upperback 0.268081 -0.37141 -0.489164
thorax 15.6693 -0.391904 2.45354
lowerneck 0.283356 -2.28424 -3.56779
upperneck 11.5057 -3.22971 10.2207
head 3.57981 -1.01518 3.62874
rclavicle 7.95139e-016 1.59028e-015
rhumerus -39.4495 -17.1142 -77.5032
rradius 37.4458
rwrist -4.14203
rhand -6.64369 -51.7591
rfingers 7.12502
rthumb 19.2135 -80.83
lclavicle 7.95139e-016 1.59028e-015
lhumerus -33.1411 16.4903 73.6979
lradius 13.8423
lwrist -16.4848
lhand -19.1429 -11.8132
lfingers 7.12502
lthumb 7.16721 18.0454
rfemur -25.164 7.48661 17.3758
rtibia 7.62563
rfoot -16.7245 -7.55062
rtoes -25.6086
lfemur -25.2569 -8.38895 -21.1115
ltibia 9.21672
lfoot 353.135 3.24814
ltoes -37.2931
829
root 9.17521 25.2046 -14.2376 -155.084 0.270027 178.864
lowerback -28.7974 -2.15843 -5.54275
upperback 0.246867 -0.435057 -0.477503
thorax 15.6506 -0.41123 2.38893
lowerneck 0.63118 -2.17095 -3.63578
upperneck 10.9626 -3.0684 10.3235
head 3.3492 -0.967968 3.67543
rclavicle 1.49089e-015 9.14409e-015
rhumerus -39.2131 -17.2181 -77.4041
rradius 37.3464
rwrist -4.20694
rhand -6.5137 -52.3035
rfingers 7.12502
rthumb 19.3385 -81.362
lclavicle 1.49089e-015 9.14409e-015
lhumerus -33.3412 18.1532 72.7554
lradius 13.0479
lwrist -18.0882
lhand -19.0633 -11.3046
lfingers 7.12502
lthumb 7.24405 18.5514
rfemur -24.9221 6.98603 17.512
rtibia 7.5816
rfoot -15.9898 -7.16012
rtoes -28.9263
lfemur -25.0734 -8.40483 -21.2275
ltibia 9.19044
lfoot 353.097 3.14378
ltoes -37.3367
830
root 9.18103 25.202 -14.2576 -155.142 0.266402 178.743
lowerback -28.8053 -1.67891 -5.90961
upperback 0.219481 -0.571234 -0.511512
thorax 15.6014 -0.861845 2.39611
lowerneck 1.05828 -2.08012 -3.61709
upperneck 10.3966 -2.93163 10.4435
head 3.09984 -0.928625 3.71249
rclavicle 1.98785e-016 -7.55382e-015
rhumerus -39.0107 -17.3271 -77.3499
rradius 37.2306
rwrist -4.21246
rhand -6.49973 -52.1645
rfingers 7.12502
rthumb 19.3519 -81.2216
lclavicle 1.98785e-016 -7.55382e-015
lhumerus -33.7245 19.6485 71.7664
lradius 12.5397
lwrist -19.4767
lhand -19.0408 -11.2362
lfingers 7.12502
lthumb 7.26574 18.619
rfemur -24.6813 6.94367 17.4226
rtibia 7.34394
rfoot -16.7656 -7.09669
rtoes -25.6567
lfemur -24.9081 -8.41061 -21.3898
ltibia 9.21108
lfoot 352.984 3.06487
ltoes -37.3976
